# xmcd CD database file
#
# Track frame offsets:
#	150
#	15900
#	38325
#	59175
#	82125
#	102389
#	122189
#	141989
#	163889
#	186016
#	207766
#	240324
#
# Disc length: 3332 seconds
#
# Revision: 0
# Processed by: cddbd v1.5.2PL0 Copyright (c) Steve Scherf et al.
# Submitted via: CDex 1.70beta2
#
DISCID=a20d020c
DTITLE=趣味工房にんじんわいん - 麗 -RAY -月天夜姫
DYEAR=2008
DGENRE=東方アレンジ
TTITLE0=月は遠く…
TTITLE1=狂乱の蟲王
TTITLE2=闇に羽ばたく
TTITLE3=幻想郷昔話
TTITLE4=人妖の狭間で
TTITLE5=魔空閃来
TTITLE6=夜想に木霊する巫音
TTITLE7=狂騒の回廊
TTITLE8=月都夜想曲
TTITLE9=美しき月の頭脳
TTITLE10=不死の代償
TTITLE11=儚月に想いを馳せる
EXTD=YEAR: 2008
EXTT0=
EXTT1=
EXTT2=
EXTT3=
EXTT4=
EXTT5=
EXTT6=
EXTT7=
EXTT8=
EXTT9=
EXTT10=
EXTT11=
PLAYORDER=
